<svg xmlns="http://www.w3.org/2000/svg" viewBox="0 0 1112.04 405.15"><g id="Layer_2" data-name="Layer 2"><g id="Layer_1-2" data-name="Layer 1"><path d="M992.84,32C892.51,11.73,773.1,0,645.05,0,535.78,0,432.87,8.51,342.55,23.62l-5.32,1c-6.82,19.93-8.62,49.88,19.09,82,40.52,47.12-65.14-8.53-82.63-69.62C108.11,73.57,0,134.13,0,202.58,0,314.42,288.83,405.15,645.05,405.15c183.7,0,349.5-24.2,467-63ZM648.57,219.32c-99.16,0-179.44-25.27-179.44-56.4s80.28-56.3,179.44-56.3S828,131.89,828,162.92,747.62,219.32,648.57,219.32Z"/><path d="M641.9,144.49c-16.65,0-30.15,5.27-30.15,11.76S625.25,168,641.9,168s30.16-5.27,30.16-11.77S658.56,144.49,641.9,144.49Z"/></g></g></svg>